<svg width="16" height="16" viewBox="0 0 16 16" fill="none" xmlns="http://www.w3.org/2000/svg">
<path fill-rule="evenodd" clip-rule="evenodd" d="M14.6667 2.0606L15.9687 14.3106C15.988 14.4061 16 14.5043 16 14.6061C16 15.3762 15.4033 16 14.6667 16H8H1.33333C0.596667 16 0 15.3762 0 14.6061C0 14.5043 0.012 14.4061 0.0313333 14.3106L1.33333 2.0606C1.33333 1.29044 1.93 0.666656 2.66667 0.666656H8H13.3333C14.07 0.666656 14.6667 1.29044 14.6667 2.0606ZM11.3333 4.84848V4.08739C11.7207 3.94381 12 3.56048 12 3.10605C12 2.52896 11.552 2.0606 11 2.0606C10.448 2.0606 10 2.52896 10 3.10605V4.84848C10 6.00127 9.10267 6.93939 8 6.93939C6.89733 6.93939 6 6.00127 6 4.84848V3.10605C6 2.52896 5.552 2.0606 5 2.0606C4.448 2.0606 4 2.52896 4 3.10605C4 3.56048 4.27933 3.94381 4.66667 4.08739V4.84848C4.66667 6.77002 6.162 8.33333 8 8.33333C9.838 8.33333 11.3333 6.77002 11.3333 4.84848Z" fill="#242424"/>
</svg>
