<svg width="24" height="24" viewBox="0 0 24 24" fill="none" xmlns="http://www.w3.org/2000/svg">
<path fill-rule="evenodd" clip-rule="evenodd" d="M16.7731 3.22703C15.5072 1.96116 13.7903 1.25 12.0001 1.25C10.2098 1.25 8.49296 1.96116 7.22709 3.22703C5.96122 4.4929 5.25006 6.20979 5.25006 8C5.25006 11.3895 4.52476 13.5135 3.84164 14.7659C3.49904 15.394 3.16298 15.8104 2.92434 16.0623C2.80483 16.1885 2.70925 16.2739 2.64883 16.3242C2.61861 16.3494 2.59716 16.3658 2.58589 16.3742L2.57831 16.3798L2.58064 16.3782L2.5822 16.3772L2.58308 16.3766L2.58315 16.3766L2.57713 16.3807C2.30699 16.565 2.18727 16.9037 2.28224 17.2173C2.37801 17.5337 2.66956 17.75 3.00006 17.75H21.0001C21.3306 17.75 21.6221 17.5337 21.7179 17.2173C21.8137 16.901 21.6911 16.5593 21.4161 16.376L21.0001 17V16.25H19.3103C19.1568 16.0265 18.9987 15.7721 18.8417 15.4841C18.0248 13.9865 17.2501 11.6105 17.2501 8C17.2501 6.60761 16.697 5.27226 15.7124 4.28769C14.7278 3.30312 13.3925 2.75 12.0001 2.75C10.6077 2.75 9.27232 3.30312 8.28775 4.28769C7.30318 5.27226 6.75006 6.60761 6.75006 8C6.75006 11.6105 5.97536 13.9865 5.15848 15.4841C5.0014 15.7721 4.84335 16.0265 4.68986 16.25H3.00006V17C3.41608 17.624 3.41659 17.6237 3.4171 17.6234L3.41819 17.6226L3.42057 17.621L3.42616 17.6172L3.44053 17.6072C3.45151 17.5995 3.46527 17.5896 3.48161 17.5774C3.51429 17.5531 3.55729 17.5197 3.6091 17.4766C3.71275 17.3902 3.85154 17.2647 4.01327 17.0939C4.21227 16.8839 4.44527 16.6062 4.68986 16.25H19.3103C19.5548 16.6062 19.7878 16.8839 19.9869 17.0939C20.1486 17.2647 20.2874 17.3902 20.3911 17.4766C20.4429 17.5197 20.4859 17.5531 20.5185 17.5774C20.5349 17.5896 20.5486 17.5995 20.5596 17.6072L20.574 17.6172L20.5796 17.621L20.582 17.6226L20.5831 17.6234C20.5836 17.6237 20.5841 17.624 21.0001 17C21.4161 16.376 21.4166 16.3763 21.4171 16.3766L21.418 16.3772L21.4195 16.3782L21.4218 16.3798C21.423 16.3806 21.4235 16.381 21.4234 16.3809L21.4143 16.3742C21.403 16.3658 21.3816 16.3494 21.3513 16.3242C21.2909 16.2739 21.1953 16.1885 21.0758 16.0623C20.8372 15.8104 20.5011 15.394 20.1585 14.7659C19.4754 13.5135 18.7501 11.3895 18.7501 8C18.7501 6.20979 18.0389 4.4929 16.7731 3.22703ZM2.58315 16.3766L2.58403 16.376L2.99891 16.9983C2.59791 16.3968 2.58405 16.377 2.58315 16.3766Z" fill="#909090"/>
<path fill-rule="evenodd" clip-rule="evenodd" d="M9.89369 20.3513C10.252 20.1434 10.7109 20.2654 10.9188 20.6237C11.0287 20.8131 11.1864 20.9703 11.3761 21.0796C11.5659 21.1889 11.781 21.2465 12 21.2465C12.219 21.2465 12.4342 21.1889 12.6239 21.0796C12.8137 20.9703 12.9714 20.8131 13.0813 20.6237C13.2891 20.2654 13.7481 20.1434 14.1064 20.3513C14.4646 20.5591 14.5866 21.018 14.3788 21.3763C14.137 21.7931 13.7901 22.139 13.3726 22.3794C12.9551 22.6199 12.4818 22.7465 12 22.7465C11.5183 22.7465 11.0449 22.6199 10.6275 22.3794C10.21 22.139 9.86301 21.7931 9.62127 21.3763C9.41343 21.018 9.5354 20.5591 9.89369 20.3513Z" fill="#909090"/>
</svg>
